# xmcd CD database file
#
# Track frame offsets:
#	150
#	26246
#	45817
#	69097
#	92783
#	113165
#	158036
#	174808
#
# Disc length: 2672 seconds
#
# Revision: 0
# Processed by: cddbd v1.5.2PL0 Copyright (c) Steve Scherf et al.
# Submitted via: CDex 1.51
#
DISCID=520a6e08
DTITLE=Spiral Dance - Through A Sylvan Doorway Disc 2 
DYEAR=2012
DGENRE=New Age
TTITLE0=Spiral Dance - Witch's Tree 
TTITLE1=Spiral Dance - Pocket Full Of Thyme and Guardian's Dance
TTITLE2=Spiral Dance - Sing The Stones 
TTITLE3=Spiral Dance - Of Gods and Other Men and Red-Haired Girl Tune Set
TTITLE4=Spiral Dance - Feet Of Clay 
TTITLE5=Spiral Dance - Summer's Farewell and Bo Mhin Na Toitean and Idbury Hill
TTITLE6=Spiral Dance - Step It Out, Mary 
TTITLE7=Spiral Dance - An Dro Tune Set 
EXTD=YEAR: 2012
EXTT0=
EXTT1=
EXTT2=
EXTT3=
EXTT4=
EXTT5=
EXTT6=
EXTT7=
PLAYORDER=
